<?xml version="1.0" encoding="utf-8"?>
<!-- Generator: Adobe Illustrator 16.0.0, SVG Export Plug-In . SVG Version: 6.00 Build 0)  -->
<!DOCTYPE svg PUBLIC "-//W3C//DTD SVG 1.1//EN" "http://www.w3.org/Graphics/SVG/1.1/DTD/svg11.dtd">
<svg version="1.1" id="Layer_1" xmlns="http://www.w3.org/2000/svg" xmlns:xlink="http://www.w3.org/1999/xlink" x="0px" y="0px"
	 width="1919.8px" height="3948.8px" viewBox="0 0 1919.8 3948.8" style="enable-background:new 0 0 1919.8 3948.8;"
	 xml:space="preserve">
<style type="text/css">
<![CDATA[
	.st0{fill:#91C2CA;}
]]>
</style>
<path class="st0" d="M154.5,3090.8v-102c24.2-15.8,40.1-43.1,40.1-74.1c0-40.5-27.2-74.6-64.2-85.1v-315.9l-46-46v-161.2l6.5-6.5
	v-162.7c7.7,2.7,16.1,4.2,24.7,4.2c41.4,0,75-33.6,75-75c0-41.4-33.6-75-75-75c-8.7,0-17,1.5-24.7,4.2v-105.5l34-34l-0.4-0.4l1,0.2
	v-299.5l-46-46v-14.1c47.2-0.9,85.2-39.5,85.2-86.9c0-45.1-34.3-82.1-78.2-86.5v-141.6l6.5-6.5V934.9l32-32l-2.8-2.8L89,933.3v239.8
	l-6.5,6.5v142.9c-1.5-0.1-3.1-0.1-4.6-0.1V925.8l38.3-38.3V726.2c1.5,0.1,3,0.1,4.5,0.1c52.1,0,94.4-42.2,94.4-94.4
	c0-52.1-42.2-94.4-94.4-94.4c-1.5,0-3,0-4.5,0.1V507l-62.3-62.3V160.4c2.1,0.2,4.3,0.3,6.4,0.3c44.4,0,80.3-36,80.3-80.3
	C140.6,36,104.7,0,60.3,0S-20,36-20,80.3c0,40.9,30.5,74.6,70,79.6v286.4l62.3,62.3V538c-48.2,4.2-86,44.7-86,94
	c0,49.3,37.8,89.7,86,94v160L74,924.2v398.3c-46.3,1.9-83.2,40.1-83.2,86.8c0,47.3,37.7,85.7,84.7,86.9v15.7l46,46v295.8L87,1888.4
	V1997c-3.1,1.3-6.2,2.8-9.1,4.5v-118.6l38.3-38.3V1713h-3.9v130L74,1881.3v122.6c-20.1,13.4-33.4,36.4-33.4,62.4
	c0,31.3,19.2,58.1,46.4,69.3v162.6l-6.5,6.5v164.4l46,46v313.3c-6.5-1.5-13.4-2.4-20.4-2.4c-48.9,0-88.5,39.6-88.5,88.5
	s39.6,88.5,88.5,88.5c16.2,0,31.3-4.3,44.3-11.9v97.8l-56.1,56.1v405.4l17.8,17.8v13.3l-26.8-26.8v-398.5c0-1.1-0.9-1.9-1.9-1.9
	s-1.9,0.9-1.9,1.9v400.1l30.7,30.7v62.9c-6.6-1.7-13.6-2.6-20.7-2.6c-46,0-83.3,37.3-83.3,83.3c0,46,37.3,83.3,83.3,83.3
	c46,0,83.3-37.3,83.3-83.3c0-26.2-12.1-49.5-30.9-64.8l3.8,1.6v-50.5l-31.4-31.4v-19.1l-17.8-17.8v-402L154.5,3090.8z M25.5,53.9
	c0-6.6,5.3-12,11.8-12.2c0.2-6.6,5.6-11.8,12.2-11.8c2.1,0,4,0.5,5.8,1.4c2.2-3.5,6-5.8,10.4-5.8s8.2,2.3,10.4,5.8
	c1.7-0.9,3.7-1.4,5.8-1.4c6.6,0,12,5.3,12.2,11.8c6.6,0.2,11.8,5.6,11.8,12.2c0,4-1.9,7.6-4.9,9.8c1.1,1.9,1.8,4,1.8,6.4
	c0,6.8-5.5,12.2-12.2,12.2l-3.7,0L74.6,96.4c-1,1.2-2,1.7-3.8,1.7h-2.7c-1.4,0-1.9-0.9-1.5-2.1l4.5-13.7H54.2
	c-6.8,0-12.3-5.4-12.3-12.2c0-1.8,0.4-3.5,1.1-5.1c-1.6,0.7-3.3,1.2-5.2,1.2C31,66.1,25.5,60.6,25.5,53.9z M36.6,132.7
	c-2.8,0-4.4-1.6-4.4-4.4V68.2c1.5,0.6,3,0.9,4.7,1v50.5h39.8v-21c0.1-0.1,0.2-0.2,0.2-0.3l4.4-5.1v34.9c0,2.8-1.6,4.4-4.4,4.4H36.6z
	 M104.8,646.4c3.2-0.8,5.4-3.7,5.4-7c0-4-3.2-7.2-7.2-7.2c-4,0-7.2,3.2-7.2,7.2c0,3.3,2.2,6.1,5.4,7v11.9l9,9.9v33.2h-6.1
	c-1.7,0-3.1-1.4-3.1-3.1v-27.1c-6.2-6.3-11.8-15.1-16.2-29.1l-13.4-41.4c-0.4-1.4,0-2.3,1.2-2.7c4.8-1.5,10.4,1.1,12.8,7.4l7.5,19.1
	c1.2,3.3,6.4,2.7,6.4-0.9c0-19.2,0-31.5,0-50.4c0-3.2,2.6-5.7,5.7-5.7s5.7,2.6,5.7,5.7v38.4c0,2.1,3.8,2.1,3.8,0v-45.3
	c0-3.2,2.6-5.7,5.7-5.7c3.2,0,5.7,2.6,5.7,5.7v45.3c0,2.1,3.8,2.1,3.8,0v-36.9c0-3.2,2.6-5.7,5.7-5.7s5.7,2.6,5.7,5.7v36.9
	c0,2.1,3.8,2.1,3.8,0v-22.4c0-3.2,2.6-5.7,5.7-5.7c3.2,0,5.7,2.6,5.7,5.7V642c0.1,12.3-4.3,22.2-11.3,29.4v26.9
	c0,1.7-1.4,3.1-3.1,3.1H136v-33.2l9-9.9v-11.9c3.2-0.8,5.4-3.7,5.4-7c0-4-3.2-7.2-7.2-7.2c-4,0-7.2,3.2-7.2,7.2c0,3.3,2.2,6.1,5.4,7
	v10.5l-9,9.9v34.6h-7.4V658c2.1-0.7,3.6-2.7,3.6-5.1s-1.5-4.3-3.6-5.1v-13c3.2-0.8,5.4-3.7,5.4-7c0-4-3.2-7.2-7.2-7.2
	s-7.2,3.2-7.2,7.2c0,3.3,2.2,6.1,5.4,7v13c-2.1,0.7-3.6,2.7-3.6,5.1s1.5,4.3,3.6,5.1v43.3h-7.4v-34.6l-9-9.9V646.4z M103,643
	c-2,0-3.6-1.6-3.6-3.6c0-2,1.6-3.6,3.6-3.6c2,0,3.6,1.6,3.6,3.6C106.6,641.4,105,643,103,643z M143.2,643c-2,0-3.6-1.6-3.6-3.6
	c0-2,1.6-3.6,3.6-3.6c2,0,3.6,1.6,3.6,3.6C146.7,641.4,145.2,643,143.2,643z M123.1,631.5c-2,0-3.6-1.6-3.6-3.6c0-2,1.6-3.6,3.6-3.6
	c2,0,3.6,1.6,3.6,3.6C126.7,629.9,125.1,631.5,123.1,631.5z M76,1372.6h-8.9c-0.8-2.9-3.4-5-6.4-5c-3.7,0-6.6,3-6.6,6.6
	c0,3.7,3,6.6,6.6,6.6c3,0,5.7-2.1,6.4-5H76v46.1h-5.1c-0.8-2.9-3.4-5-6.4-5c-3.7,0-6.6,3-6.6,6.6c0,3.7,3,6.6,6.6,6.6
	c3,0,5.7-2,6.4-5H76v32.2c-3.4,3.4-8.1,5.5-13.3,5.5c-10.1,0-18.4-8.1-18.7-18.2c1.7,0.4,3.4,0.6,5.2,0.6c6.1,0,11.6-2.5,15.6-6.5
	l-2.4-2.4c-3.4,3.4-8,5.5-13.2,5.5c-10.3,0-18.7-8.4-18.7-18.7c0-4.8,1.8-9.2,4.8-12.5H42c0.8,2.9,3.4,5,6.4,5c3.7,0,6.6-3,6.6-6.6
	c0-3.7-3-6.6-6.6-6.6c-3,0-5.7,2-6.4,5h-6.6c-3-3.3-4.8-7.7-4.8-12.5c0-7.4,4.3-13.7,10.5-16.8c0.8,4.4,3,8.4,6.1,11.4
	c4,4,9.5,6.5,15.6,6.5v-3.4c-10.3,0-18.7-8.4-18.7-18.7c0-10.3,8.4-18.7,18.7-18.7c5.2,0,9.9,2.1,13.3,5.5V1372.6z M64,1374.2
	c0,1.8-1.5,3.3-3.3,3.3c-1.8,0-3.3-1.5-3.3-3.3c0-1.8,1.5-3.3,3.3-3.3C62.5,1371,64,1372.4,64,1374.2z M67.8,1423.7
	c0,1.8-1.5,3.3-3.3,3.3c-1.8,0-3.3-1.5-3.3-3.3c0-1.8,1.5-3.3,3.3-3.3S67.8,1421.9,67.8,1423.7z M45.2,1409.3c0-1.8,1.5-3.3,3.3-3.3
	s3.3,1.5,3.3,3.3c0,1.8-1.5,3.3-3.3,3.3C46.6,1412.6,45.2,1411.2,45.2,1409.3z M79.4,1446.1h8.9c0.8,2.9,3.4,5,6.4,5
	c3.7,0,6.6-3,6.6-6.6c0-3.7-3-6.6-6.6-6.6c-3,0-5.7,2-6.4,5h-8.9v-46.1h5.1c0.8,2.9,3.4,5,6.4,5c3.7,0,6.6-3,6.6-6.6
	c0-3.7-3-6.6-6.6-6.6c-3,0-5.7,2.1-6.4,5h-5.1v-32.2c3.4-3.4,8.1-5.5,13.3-5.5c10.1,0,18.4,8.1,18.7,18.2c-1.7-0.4-3.4-0.6-5.2-0.6
	c-6.1,0-11.6,2.5-15.6,6.5l2.4,2.4c3.4-3.4,8-5.5,13.2-5.5c10.3,0,18.7,8.4,18.7,18.7c0,4.8-1.8,9.2-4.8,12.5h-6.6
	c-0.8-2.9-3.4-5-6.4-5c-3.7,0-6.6,3-6.6,6.6c0,3.7,3,6.6,6.6,6.6c3,0,5.7-2.1,6.4-5h6.6c3,3.3,4.8,7.7,4.8,12.5
	c0,7.4-4.3,13.7-10.5,16.8c-0.8-4.4-3-8.4-6.1-11.4c-4-4-9.5-6.5-15.6-6.5v3.4c10.3,0,18.7,8.4,18.7,18.7c0,10.3-8.4,18.7-18.7,18.7
	c-5.2,0-9.9-2.1-13.3-5.5V1446.1z M91.4,1444.5c0-1.8,1.5-3.3,3.3-3.3c1.8,0,3.3,1.5,3.3,3.3c0,1.8-1.5,3.3-3.3,3.3
	S91.4,1446.3,91.4,1444.5z M87.6,1395c0-1.8,1.5-3.3,3.3-3.3c1.8,0,3.3,1.5,3.3,3.3c0,1.8-1.5,3.3-3.3,3.3
	C89,1398.2,87.6,1396.8,87.6,1395z M110.2,1409.3c0,1.8-1.5,3.3-3.3,3.3c-1.8,0-3.3-1.5-3.3-3.3c0-1.8,1.5-3.3,3.3-3.3
	S110.2,1407.5,110.2,1409.3z M133.7,2107.4h-14.4v1.8h8.1c1,0,1.8,0.8,1.8,1.8c0,1-0.8,1.8-1.8,1.8h-22.6c-1,0-1.8-0.8-1.8-1.8
	c0-1,0.8-1.8,1.8-1.8h7.2v-1.8H97.5c-1,0-1.8-0.8-1.8-1.8c0-1,0.8-1.8,1.8-1.8h36.2c1,0,1.8,0.8,1.8,1.8
	C135.5,2106.6,134.7,2107.4,133.7,2107.4z M146.5,2107.4H139c-0.9,0-1.7-0.8-1.7-1.8s0.7-1.8,1.7-1.8h7.5c0.9,0,1.7,0.8,1.7,1.8
	S147.4,2107.4,146.5,2107.4z M115.6,2014.9c15.6,0,28.3,12.3,28.3,27.4c0,5.7-2.3,10.1-4.6,14.2l0,0c0,0-0.5,0.9-20.8,36.6
	c-0.6,1-1.7,1.7-2.9,1.7s-2.3-0.6-2.9-1.7l-21.3-37.4c-2.4-4.3-4.1-8.2-4.1-13.3C87.3,2027.2,100,2014.9,115.6,2014.9z M55.3,2100.2
	c-1.1,0-2.1-0.8-2.1-1.8c0-1,0.9-1.8,2.1-1.8h2.5c-0.1-0.2-0.1-0.4-0.1-0.7v0v-25.8c0-2.9,4.2-4.3,13.6-4.3s13.6,1.3,13.6,4.3v25.8
	c0,0.2,0,0.5-0.1,0.7h61.6c-0.1-0.2-0.1-0.4-0.1-0.7v0v-25.8c0-2.9,4.2-4.3,13.6-4.3s13.6,1.3,13.6,4.3v25.8c0,0.2,0,0.5-0.1,0.7
	h2.6c1.1,0,2.1,0.8,2.1,1.8c0,1-0.9,1.8-2.1,1.8H55.3z M84.7,2107.4c-0.9,0-1.7-0.8-1.7-1.8s0.7-1.8,1.7-1.8h7.5
	c0.9,0,1.7,0.8,1.7,1.8s-0.7,1.8-1.7,1.8H84.7z M160.1,2937.2h-5.6v-6.9h5.6c1.9,0,3.4,1.5,3.4,3.4S162,2937.2,160.1,2937.2z
	 M147.1,2892h13c1.9,0,3.4,1.5,3.4,3.4s-1.5,3.4-3.4,3.4h-13V2892z M147.1,2911.2h13c1.9,0,3.4,1.5,3.4,3.4s-1.5,3.4-3.4,3.4h-13
	V2911.2z M121.9,2860.7c0-1.9,1.5-3.4,3.4-3.4s3.4,1.5,3.4,3.4v13h-6.9V2860.7z M102.7,2860.7c0-1.9,1.5-3.4,3.4-3.4
	s3.4,1.5,3.4,3.4v13h-6.9V2860.7z M83.5,2860.7c0-1.9,1.5-3.4,3.4-3.4s3.4,1.5,3.4,3.4v13h-6.9V2860.7z M65.1,2937.2h-13
	c-1.9,0-3.4-1.5-3.4-3.4s1.5-3.4,3.4-3.4h13V2937.2z M65.1,2918h-13c-1.9,0-3.4-1.5-3.4-3.4s1.5-3.4,3.4-3.4h13V2918z M65.1,2898.9
	h-13c-1.9,0-3.4-1.5-3.4-3.4s1.5-3.4,3.4-3.4h13V2898.9z M90.4,2968.6c0,1.9-1.5,3.4-3.4,3.4s-3.4-1.5-3.4-3.4v-13h6.9V2968.6z
	 M109.6,2968.6c0,1.9-1.5,3.4-3.4,3.4s-3.4-1.5-3.4-3.4v-13h6.9V2968.6z M128.8,2968.6c0,1.9-1.5,3.4-3.4,3.4s-3.4-1.5-3.4-3.4v-13
	h6.9V2968.6z M143.7,2943.6c0,5.4-3.2,8.6-8.6,8.6h-58c-5.4,0-8.6-3.2-8.6-8.6v-58c0-5.4,3.2-8.6,8.6-8.6h58c5.4,0,8.6,3.1,8.6,8.6
	V2943.6z M147.1,2937.2v-6.9h3.3v6.9H147.1z M144,3703.6c2.8,0.4,3.4,2.1,3.4,3.4c0,2,0,4.1,0.1,6.1c0.1,8.8,0.3,17.9-2.2,26.8
	c-2.5,9-7.2,16.2-13.9,21.4c-1.1,0.8-1.4,1.6-1.4,3.1c0,3.3,0,6.7,0,10c0,3.1,0,6.2,0,9.4c0,1-0.1,2.3-1,3.3
	c-0.7,0.7-1.8,1.1-3.3,1.1c0,0,0,0,0,0c-9.3,0-18.6,0-28,0c-11.3,0-22.6,0-33.9,0c-1.4,0-3-0.7-4-1.6c-3.8-3.6-7.5-7.3-11-10.9
	c-1-1.1-1.5-2.8-1.5-4c-0.1-11.4-0.1-22.8-0.1-34.2v-53c0-4.2,0.7-5,4.9-5h72.8c4.1,0,5,0.9,5,4.9l0,3.9c0,3.6,0,7.4-0.1,11.1
	c-0.1,1.7,0.5,2.1,1.7,2.3l3.2,0.6C137.8,3702.6,140.9,3703.2,144,3703.6z M116.2,3591.2l27.5,27.5v47.2
	c-8.1-6.5-17.4-11.6-27.5-14.7V3591.2z"/>
<circle class="st0" cx="80" cy="48.7" r="3.1"/>
<circle class="st0" cx="62" cy="48.7" r="3.1"/>
<path class="st0" d="M85.4,62.4l-2.2-2.2c-3.1,3.1-7.4,5-12.2,5c-4.8,0-9.1-1.9-12.2-5l-2.2,2.2c3.7,3.7,8.8,6,14.4,6
	C76.6,68.3,81.7,66.1,85.4,62.4z"/>
<path class="st0" d="M117.1,2900.4H95.2c-2,0-3.2,1.2-3.2,3.2v21.9c0,2,1.2,3.2,3.2,3.2h21.9c2,0,3.2-1.2,3.2-3.2v-21.9
	C120.3,2901.6,119.1,2900.4,117.1,2900.4z"/>
<path class="st0" d="M123.7,3766.3c0-0.1,0-0.1,0-0.2c-0.1,0-0.1,0.1-0.2,0.1c-0.9,0.4-1.6,0.7-2.2,1.1c-4.9,3.2-9.3,1.8-12.7,0.1
	c-13.4-6.5-21.3-16.3-24.3-29.9c-1.9-8.6-1.8-17.2-1.7-26l0-1.8c0.1-5.2,0.3-5.9,5.2-6.4c0.7-0.1,1.5-0.1,2.4-0.2
	c7.8-0.9,14.8-3.7,20.8-8.3c3.7-2.8,4.3-2.8,8.1,0.1c1.2,0.9,2.5,1.7,4,2.7c0.2,0.1,0.4,0.2,0.6,0.4c0-0.7,0-1.4,0-2.1
	c0-2.9-0.1-5.7,0.1-8.4c0.1-1.1-0.1-1.5-0.2-1.7c-0.2-0.2-0.9-0.4-1.8-0.3c-17.2,0.1-34.4,0.1-51.5,0.1l-16.8,0l0,75
	c0,2.6,0,5.2,0,7.9c0,0.9,0.1,1.1,0.2,1.2c0.1,0.1,0.4,0.2,1,0.2c1.4-0.1,2.8-0.1,4.2-0.1c1,0,2,0,3,0c0.1,0,0.1,0,0.2,0
	c1.2,0,2.1,0.3,2.7,0.9c0.7,0.7,1,1.6,1,2.9c0,0.9,0,1.8,0,2.7c0,1.5,0,3,0,4.5c0,0.8,0.1,0.9,0.1,1c0,0,0.2,0.2,1,0.2c0,0,0,0,0,0
	c18.6,0,37.3,0,55.9,0c0,0,0,0,0,0c0.8,0,0.9-0.1,0.9-0.1c0,0,0.1-0.1,0.1-0.8c-0.1-3,0-6,0-9
	C123.7,3770.1,123.7,3768.2,123.7,3766.3z M86,3745.1c0,0.9-0.2,1.7-0.7,2.2c-0.9,0.9-2.1,0.9-3.1,0.9c-3.9,0-7.9,0-11.8,0
	c-3.5,0-7,0-10.5,0c-1,0-2.3,0-3.2-0.9c-0.5-0.5-0.8-1.3-0.7-2.2c0.1-2.9,2.7-2.9,3.9-2.9l14.3,0c2.6,0,5.3,0,7.9,0
	C83.4,3742.1,85.9,3742.1,86,3745.1z M56.6,3696.2c0.8-0.8,1.9-0.9,3.1-0.9c0,0,0,0,0,0l11.4,0l3.1,0c2.7,0,5.4,0,8,0
	c1,0,2.4,0.1,3.2,1.1c0.3,0.4,0.7,1.1,0.5,2.3c-0.3,1.4-2.4,2.6-3.7,2.6c-4.1,0.1-8.3,0.1-12.4,0.1c-1.8,0-3.7,0-5.5,0l-4.7,0
	c-0.9,0-3.7,0-3.8-2.9C55.8,3697.5,56.1,3696.8,56.6,3696.2z M80.4,3711.3c-0.6,0.7-1.6,1.1-3,1.1c0,0,0,0,0,0l-6.4,0
	c-2,0-3.9,0-5.9,0c-1.8,0-3.7,0-5.5,0c-1.1,0-2.2-0.1-2.9-0.9c-0.5-0.5-0.8-1.2-0.8-2.1c0-2,1.3-3,3.7-3l6.4,0l3.7,0
	c0.4,0,0.9,0,1.3,0c2.1,0,4.4-0.1,6.5,0.1c1.2,0.1,3.1,1.2,3.4,2.6C81.1,3710.1,80.8,3710.8,80.4,3711.3z M56.2,3720.5
	c0.2-0.2,0.4-0.4,0.6-0.6c0.6-0.7,1.4-1.4,2.3-1.5c2.3-0.2,4.6-0.1,6.8-0.1c0.5,0,1,0,1.6,0l0.9,0l2.6,0c2.1,0,4.2,0,6.3,0
	c1.4,0,2.4,0.4,3,1.1c0.3,0.4,0.7,1.1,0.5,2.2c-0.2,1.3-2.2,2.6-3.5,2.7c-2.9,0.1-5.9,0.1-8.8,0.1c-3.1,0-6.2,0-9.3-0.1
	c-1,0-1.7-0.8-2.4-1.4c-0.2-0.2-0.4-0.4-0.7-0.6l-1.1-0.9L56.2,3720.5z M56.3,3732.9c0.2-0.2,0.4-0.4,0.6-0.6
	c0.7-0.7,1.4-1.4,2.4-1.4c6-0.2,12.1-0.2,18.1,0c1.3,0,3.2,1.3,3.5,2.6c0.2,1.1-0.1,1.8-0.5,2.2c-0.6,0.7-1.6,1.1-3,1.1c0,0,0,0,0,0
	l-7.8,0l-1.1,0c-0.8,0-1.7,0-2.5,0c-0.8,0-1.7,0-2.5,0c-1.4,0-2.8,0-4.3-0.1c-1-0.1-1.7-0.8-2.3-1.5c-0.2-0.2-0.4-0.4-0.6-0.6
	l-1.1-0.9L56.3,3732.9z M59.5,3753.6l13,0l4.8,0c3.4,0,6.8,0,10.3,0.1c1.2,0,3.3,0.8,3.7,2.2c0.4,1.3,0.1,2.1-0.2,2.6
	c-0.6,0.8-1.7,1.2-3.3,1.2c-5.1,0-10.2,0-15.3,0h-3.1c-0.9,0-1.9,0-2.8,0c-2.4,0-4.7,0-7.1,0c-1,0-2.1-0.1-2.9-0.9
	c-0.5-0.5-0.8-1.2-0.8-2.1C55.8,3754.6,57.1,3753.6,59.5,3753.6z M100,3768.8c-0.8,0.8-1.9,1-3.1,0.9c-4.9,0-9.7,0-14.6,0l-4,0l-5,0
	c-4.5,0-9.1,0-13.6,0c0,0-0.1,0-0.2,0c-1.2,0-3.7-0.1-3.8-3c0-0.9,0.2-1.7,0.8-2.3c0.8-0.8,2-0.9,3-0.9H69c9.3,0,18.6,0,27.9,0
	c1,0,3.8,0,3.9,3.1C100.8,3767.5,100.6,3768.2,100,3768.8z"/>
<path class="st0" d="M115,3699.6c-7.3,5.7-15.6,8.9-25.5,9.9c-0.7,0.1-0.8,0.1-0.7,1.2c0.1,2.1,0.1,4.3,0.1,6.4
	c0.1,4.4,0.1,8.9,0.5,13.3c1.4,14.9,9,25.6,22.6,31.7c2,0.9,3.6,0.9,5.8,0c12-5.1,19.2-13.6,22-25.9c1.6-7.2,1.5-14.7,1.4-21.9
	c0-1.4,0-2.9,0-4.3c-0.1-0.1-0.5-0.5-0.7-0.5c-1-0.2-2.1-0.4-3.2-0.5c-1-0.1-2-0.3-2.9-0.5C127.1,3707.1,120.8,3704.1,115,3699.6z
	 M131.9,3721c0,0.9,0.1,2-0.6,2.7c-4.6,4.7-9.3,9.4-14,14.1l-3.5,3.5c-0.8,0.8-1.7,1.2-2.6,1.2c0,0,0,0,0,0c-0.9,0-1.8-0.4-2.7-1.3
	l-2.5-2.5c-2.4-2.3-4.8-4.7-7.1-7.2c-0.9-1-1.3-3.2-0.5-4.4c0.6-0.9,1.4-1.2,2-1.2c1-0.1,2,0.4,2.9,1.4c1.9,2,3.8,4,5.8,6.1l2,2.1
	l12.9-13c0.3-0.3,0.5-0.6,0.8-0.9c0.7-0.8,1.5-1.6,2.5-2.2c0.8-0.5,1.8-0.4,2.7-0.4c0.3,0,0.6,0,0.9,0l1.3-0.1l-0.1,1.3
	C131.9,3720.4,131.9,3720.7,131.9,3721z"/>
<path class="st0" d="M61.4,2082.1v4.8c0.6,0.3,3,1.1,9.9,1.1s9.3-0.8,9.9-1.1v-4.8c-2.2,0.6-5.5,0.9-9.9,0.9
	C66.8,2083,63.6,2082.7,61.4,2082.1z"/>
<path class="st0" d="M61.4,2090.7v4.8c0.6,0.3,3,1.1,9.9,1.1c7,0,9.3-0.8,9.9-1.1v-4.8c-2.2,0.6-5.5,0.9-9.9,0.9
	C66.8,2091.6,63.6,2091.3,61.4,2090.7z"/>
<path class="st0" d="M115.6,2084.7c5.7-10,17.7-31.1,17.9-31.5c2.3-4.1,3.7-7.2,3.7-10.9c0-11.4-9.7-20.7-21.6-20.7
	c-11.9,0-21.6,9.3-21.6,20.7c0,3.7,1.2,6.6,3.2,10L115.6,2084.7z M115.6,2029.9c6.4,0,11.6,5.2,11.6,11.6s-5.2,11.6-11.6,11.6
	s-11.6-5.2-11.6-11.6S109.2,2029.9,115.6,2029.9z"/>
<path class="st0" d="M115.6,2046.5c2.8,0,5-2.2,5-5s-2.2-5-5-5c-2.8,0-5,2.2-5,5S112.8,2046.5,115.6,2046.5z"/>
<path class="st0" d="M79.7,2070.1c-1.4-0.3-4-0.7-8.4-0.7c-4.4,0-7,0.3-8.4,0.7c1.4,0.3,4,0.7,8.4,0.7
	C75.7,2070.8,78.3,2070.5,79.7,2070.1z"/>
<path class="st0" d="M61.4,2073.5v4.8c0.6,0.3,3,1.1,9.9,1.1s9.3-0.8,9.9-1.1v-4.8c-2.2,0.6-5.5,0.9-9.9,0.9
	C66.8,2074.4,63.6,2074.1,61.4,2073.5z"/>
<path class="st0" d="M168.3,2070.1c-1.4-0.3-4-0.7-8.4-0.7c-4.4,0-7,0.3-8.4,0.7c1.4,0.3,4,0.7,8.4,0.7
	C164.3,2070.8,166.9,2070.5,168.3,2070.1z"/>
<path class="st0" d="M149.9,2073.5v4.8c0.6,0.3,3,1.1,9.9,1.1s9.3-0.8,9.9-1.1v-4.8c-2.2,0.6-5.5,0.9-9.9,0.9
	S152.2,2074.1,149.9,2073.5z"/>
<path class="st0" d="M149.9,2090.7v4.8c0.6,0.3,3,1.1,9.9,1.1c7,0,9.3-0.8,9.9-1.1v-4.8c-2.2,0.6-5.5,0.9-9.9,0.9
	S152.2,2091.3,149.9,2090.7z"/>
<path class="st0" d="M149.9,2082.1v4.8c0.6,0.3,3,1.1,9.9,1.1s9.3-0.8,9.9-1.1v-4.8c-2.2,0.6-5.5,0.9-9.9,0.9
	S152.2,2082.7,149.9,2082.1z"/>
<path class="st0" d="M1858.6,200c-47.8,0-86.5,38.7-86.5,86.5c0,47.8,38.7,86.5,86.5,86.5c4.9,0,9.7-0.4,14.4-1.2v140.6l-56.1,56.1
	v329.6c-11.4-7.6-25.1-12-39.8-12c-39.8,0-72,32.2-72,72c0,39.8,32.2,72,72,72c23.5,0,44.4-11.3,57.6-28.8v81l-87.9,87.9v284.2h4.1
	v-282.5l87.9-87.9v-88.7c6.6-10.9,10.3-23.6,10.3-37.2c0-23.2-11-43.9-28.1-57V570.2l56.1-56.1V371c38.9-8.5,68-43.1,68-84.5
	C1945.1,238.7,1906.3,200,1858.6,200z M1803.8,985.9c-6.2,8-15.1,14.6-25.6,19.2c-0.4,0.2-0.7,0.2-1.1,0.2s-0.8-0.1-1.1-0.2
	c-10.5-4.6-19.4-11.2-25.6-19.2c-6.5-8.4-9.9-18-9.9-27.8c0-4.9,0-9.9,0.1-14.7c0-4.8,0.1-9.8,0.1-14.6c0-1.2,0.7-2.2,1.8-2.6
	s2.4-0.1,3.1,0.8c2.6,3,8.1,5,14,5c8,0,13.6-3.3,15-6.5c0.4-1,1.5-1.7,2.6-1.7s2.1,0.7,2.6,1.7c1.4,3.3,7,6.5,15,6.5
	c5.9,0,11.4-2,14-5c0.8-0.9,2-1.2,3.1-0.8s1.8,1.5,1.8,2.6c0,4.9,0,9.8,0.1,14.6c0,4.8,0.1,9.8,0.1,14.7
	C1813.7,968,1810.3,977.6,1803.8,985.9z M1899.3,285.4l-7.8-8.5v-9.3l5.9-6.5C1900,269.3,1900.2,277.6,1899.3,285.4z M1858.1,319.7
	c-3.9-1.4-7.9,2.3-12.4,3.1c3,2.5,7.5,5,12.5,5.6v15.3c-8.8-0.6-16.3-5.8-22.7-14c-3.1-4-5.8-8.7-7.8-13.9
	c-9.2,1.4-19-26.5-6.6-26.2c-1.7-10.6-1.9-22.3,3.2-33.6c6.3-14,20.7-20.9,35.6-20.9c2.1,0,4.3,0.1,6.4,0.4v8.5l-8,8.8v38.7l8,8.8
	v6.5c-0.7,0.2-1.3,0.6-1.9,1.1c-2.6,2.3-5.3,2.3-7.9,0c-2.4-2.1-5.1-1.5-6.3,1.2c2.9,0,4.4,1,5.7,2c0.6,0.5,1.2,1,2,1.4
	c1.7,1,3.5,1,5.2,0c0.7-0.4,1.3-0.9,2-1.4c0.4-0.3,0.9-0.7,1.4-1v9.3c-1.3-0.3-2.4-0.4-3.7,0.1
	C1860.3,320.5,1860.4,320.5,1858.1,319.7z M1868.2,342.4c-2.1,0.8-4.3,1.2-6.6,1.4v-14.2l8-8.8v-21.6l-8-8.8v-36.1l8-8.8v-9.2
	c2.3,0.5,4.5,1.2,6.6,2v0.4v10l-8,8.8v29.8l8,8.8v28l-8,8.8V342.4z M1884.3,329.8c-3.8,4.9-8,8.7-12.7,11.1v-6.9l8-8.8v-30.6l-8-8.8
	v-27.2l8-8.8v-10.2c2.4,1.2,4.6,2.6,6.6,4.3v9l-8,8.8v20.8l8,8.8V312l5.1,5.6C1889.4,322.1,1887,326.3,1884.3,329.8z M1894.2,315.7
	l-4.6-5.1l0-20.5l-8-8.8v-18.3l8-8.8v-7.2c2.4,2.6,4.4,5.6,5.9,9c0.2,0.5,0.4,1,0.6,1.4l-8,8.7v11.9c5.4,6,10.9,11.9,16.3,17.9
	C1904.9,303.2,1899.7,314,1894.2,315.7z"/>
<path class="st0" d="M1850.4,278.1c2.7,1,4.6-2.9,2.5-3.9c-7.8-4-19.7-1.8-25.2,6.8C1836.9,274.6,1842.9,275,1850.4,278.1z"/>
<path class="st0" d="M1848.1,287.1c-2,1.1-4,1.9-6.1,2.2c-3.7,0.6-7.3-0.3-10.3-3.2c1.9,5.5,6.2,7.5,10.3,7.1
	c5.9-0.4,8.5-5.5,11.7-5.8C1851.7,286.2,1850,286.1,1848.1,287.1z"/>
<circle class="st0" cx="1832.7" cy="1676.1" r="3.2"/>
<path class="st0" d="M1835.1,1710c-1.7,0-3.1,1.4-3.1,3.1s1.4,3.1,3.1,3.1c1.7,0,3.1-1.4,3.1-3.1
	C1838.3,1711.5,1836.9,1710,1835.1,1710z"/>
<path class="st0" d="M1869.8,1675.4c-1.7,0-3.1,1.4-3.1,3.1c0,1.7,1.4,3.1,3.1,3.1c1.7,0,3.1-1.4,3.1-3.1
	C1872.9,1676.8,1871.5,1675.4,1869.8,1675.4z"/>
<path class="st0" d="M1838.3,1605.7c0-1.7-1.4-3.1-3.1-3.1c-1.7,0-3.1,1.4-3.1,3.1s1.4,3.1,3.1,3.1
	C1836.9,1608.8,1838.3,1607.4,1838.3,1605.7z"/>
<circle class="st0" cx="1869.8" cy="1640.3" r="3.1"/>
<circle class="st0" cx="1796.9" cy="1605.7" r="3.1"/>
<circle class="st0" cx="1762.3" cy="1640.3" r="3.1"/>
<circle class="st0" cx="1832.7" cy="1642.7" r="3.2"/>
<circle class="st0" cx="1796.9" cy="1713.2" r="3.1"/>
<path class="st0" d="M1809,1668.6h14.1c1.3,0,2.1-0.8,2.1-2.1v-14.1c0-1.3-0.8-2.1-2.1-2.1H1809c-1.3,0-2.1,0.8-2.1,2.1v14.1
	C1806.9,1667.8,1807.7,1668.6,1809,1668.6z"/>
<path class="st0" d="M1762.3,1681.7c1.7,0,3.1-1.4,3.1-3.1c0-1.7-1.4-3.1-3.1-3.1s-3.1,1.4-3.1,3.1
	C1759.1,1680.3,1760.5,1681.7,1762.3,1681.7z"/>
<circle class="st0" cx="1799.3" cy="1642.7" r="3.2"/>
<circle class="st0" cx="1799.3" cy="1676.1" r="3.2"/>
<path class="st0" d="M1853.7,3843.9c-22,0-39.9,17.9-39.9,39.9c0,10.1,3.8,19.3,10,26.3v-19.7c0-1.8,1.5-3.3,3.3-3.3h3.3v-10
	c0-12.8,10.4-23.3,23.3-23.3c12.8,0,23.3,10.4,23.3,23.3v10h3.3c1.8,0,3.3,1.5,3.3,3.3v19.7c6.2-7,10-16.2,10-26.3
	C1893.6,3861.8,1875.7,3843.9,1853.7,3843.9z"/>
<path class="st0" d="M1853.7,3860.5c-9.2,0-16.6,7.5-16.6,16.6v10h33.3v-10C1870.3,3868,1862.9,3860.5,1853.7,3860.5z"/>
<path class="st0" d="M1830.4,3916.1c6.6,4.7,14.6,7.6,23.3,7.6s16.7-2.8,23.3-7.6v-22.4h-46.6V3916.1z M1850.4,3903.7
	c0-1.8,1.5-3.3,3.3-3.3c1.8,0,3.3,1.5,3.3,3.3v10c0,1.8-1.5,3.3-3.3,3.3c-1.8,0-3.3-1.5-3.3-3.3V3903.7z"/>
<path class="st0" d="M1858.2,3819v-46.6l38.3-38.3v-160.5l-62.3-62.3v-158.2c23.1-12.2,38.8-36.4,38.8-64.3
	c0-22.8-10.5-43.2-27-56.6v-199.2l-42.3-42.3v-342.2l51.7-72V2476c25.8-14.6,43.3-42.3,43.3-74.1c0-45.9-36.4-83.3-81.8-84.9V1934
	l17.8-17.8v-94.1l-79-79V1717c15.2,16,36.6,25.9,60.4,25.9c46.1,0,83.5-37.4,83.5-83.5c0-46.1-37.4-83.5-83.5-83.5
	c-20.4,0-39.1,7.4-53.7,19.5v-420.1l33.4-33.4l-2.9-2.9l-34.6,34.6v425.4c-4.3,4.2-8.2,8.8-11.6,13.8v-161.2h-4.1v167.9
	c-6.4,11.8-10.1,25.4-10.1,39.8s3.7,28,10.1,39.8v36.7l8.9,8.9v36l48.1,48.1v489.2c-40.3,6.7-70.9,41.7-70.9,83.8
	c0,46.9,38.1,85,85,85c13.5,0,26.3-3.2,37.6-8.8v96.8l-51.7,72v345.6l42.3,42.3v194.5c-2.5-1.7-5-3.3-7.7-4.7V3043
	c0-1.1-0.9-1.9-1.9-1.9s-1.9,0.9-1.9,1.9v179.7c-9.2-4.2-19.3-6.5-30-6.5c-40.2,0-72.7,32.6-72.7,72.7s32.6,72.7,72.7,72.7
	c10.7,0,20.9-2.3,30-6.5V3513l62.3,62.3v157.3l-38.3,38.3v48c-0.2,0-0.4,0-0.6,0c-35.9,0-65,29.1-65,65s29.1,65,65,65
	c35.9,0,65-29.1,65-65C1918.7,3849.4,1892,3821.3,1858.2,3819z M1782.1,1700.1c-1.9,1.9-4.9,1.9-6.7,0c-1.9-1.9-1.9-4.9,0-6.7
	c1.5-1.5,3.6-1.8,5.4-0.9l9.2-9.2c0.6,0.9,1.4,1.7,2.3,2.3l-9.2,9.2C1783.9,1696.5,1783.5,1698.7,1782.1,1700.1z M1788.6,1661.1
	h-11.8c-0.7,1.8-2.4,3.1-4.5,3.1c-2.6,0-4.8-2.1-4.8-4.8c0-2.6,2.1-4.8,4.8-4.8c2.1,0,3.8,1.3,4.5,3.1h11.8V1661.1z M1791.8,1678.2
	v-37.4c0-3.5,2.1-5.5,5.5-5.5h37.4c3.5,0,5.5,2,5.5,5.5v37.4c0,3.5-2.1,5.5-5.5,5.5h-37.4
	C1793.8,1683.7,1791.8,1681.6,1791.8,1678.2z M1805.7,1691.5l-7.2,7.9v7.6c2.8,0.7,4.8,3.3,4.8,6.2c0,3.5-2.9,6.4-6.4,6.4
	c-3.5,0-6.4-2.9-6.4-6.4c0-2.9,2-5.4,4.8-6.2v-8.9l7.2-7.9v-3.4h3.2V1691.5z M1816,1708c-2.6,0-4.8-2.1-4.8-4.8
	c0-2.1,1.3-3.8,3.1-4.5v-11.8h3.2v11.8c1.8,0.7,3.1,2.4,3.1,4.5C1820.8,1705.8,1818.7,1708,1816,1708z M1835.1,1719.6
	c-3.5,0-6.4-2.9-6.4-6.4c0-2.9,2-5.4,4.8-6.2v-7.6l-7.2-7.9v-4.6h3.2v3.4l7.2,7.9v8.9c2.8,0.7,4.8,3.3,4.8,6.2
	C1841.5,1716.7,1838.7,1719.6,1835.1,1719.6z M1856.7,1700.1c-1.9,1.9-4.9,1.9-6.7,0c-1.5-1.5-1.8-3.6-0.9-5.4l-9.2-9.2
	c0.9-0.6,1.7-1.4,2.3-2.3l9.2,9.2c1.8-0.8,3.9-0.5,5.4,0.9C1858.6,1695.2,1858.6,1698.3,1856.7,1700.1z M1869.8,1684.9
	c-2.9,0-5.4-2-6.2-4.8h-8.9l-7.9-7.2h-3.4v-3.2h4.6l7.9,7.2h7.6c0.7-2.8,3.3-4.8,6.2-4.8c3.5,0,6.4,2.9,6.4,6.4
	C1876.1,1682.1,1873.3,1684.9,1869.8,1684.9z M1843.5,1661.1v-3.2h11.8c0.7-1.8,2.4-3.1,4.5-3.1c2.6,0,4.8,2.1,4.8,4.8
	c0,2.6-2.1,4.8-4.8,4.8c-2.1,0-3.8-1.3-4.5-3.1H1843.5z M1869.8,1634c3.5,0,6.4,2.9,6.4,6.4c0,3.5-2.9,6.4-6.4,6.4
	c-2.9,0-5.4-2-6.2-4.8h-7.6l-7.9,7.2h-4.6v-3.2h3.4l7.9-7.2h8.9C1864.3,1635.9,1866.9,1634,1869.8,1634z M1850,1618.8
	c1.9-1.9,4.9-1.9,6.7,0c1.9,1.9,1.9,4.9,0,6.7c-1.5,1.5-3.6,1.8-5.4,0.9l-9.2,9.2c-0.6-0.9-1.4-1.7-2.3-2.3l9.2-9.2
	C1848.2,1622.4,1848.5,1620.2,1850,1618.8z M1826.4,1627.4l7.2-7.9v-7.6c-2.8-0.7-4.8-3.3-4.8-6.2c0-3.5,2.9-6.4,6.4-6.4
	c3.5,0,6.4,2.9,6.4,6.4c0,2.9-2,5.4-4.8,6.2v8.9l-7.2,7.9v3.4h-3.2V1627.4z M1816,1610.9c2.6,0,4.8,2.1,4.8,4.8
	c0,2.1-1.3,3.8-3.1,4.5v11.8h-3.2v-11.8c-1.8-0.7-3.1-2.4-3.1-4.5C1811.3,1613.1,1813.4,1610.9,1816,1610.9z M1796.9,1599.3
	c3.5,0,6.4,2.9,6.4,6.4c0,2.9-2,5.4-4.8,6.2v7.6l7.2,7.9v4.6h-3.2v-3.4l-7.2-7.9v-8.9c-2.8-0.7-4.8-3.3-4.8-6.2
	C1790.5,1602.2,1793.4,1599.3,1796.9,1599.3z M1775.4,1618.8c1.9-1.9,4.9-1.9,6.7,0c1.5,1.5,1.8,3.6,0.9,5.4l9.2,9.2
	c-0.9,0.6-1.7,1.4-2.3,2.3l-9.2-9.2c-1.8,0.8-3.9,0.5-5.4-0.9C1773.5,1623.6,1773.5,1620.6,1775.4,1618.8z M1762.3,1634
	c2.9,0,5.4,2,6.2,4.8h8.9l7.9,7.2h3.4v3.2h-4.6l-7.9-7.2h-7.6c-0.7,2.8-3.3,4.8-6.2,4.8c-3.5,0-6.4-2.9-6.4-6.4
	C1755.9,1636.8,1758.8,1634,1762.3,1634z M1762.3,1672.2c2.9,0,5.4,2,6.2,4.8h7.6l7.9-7.2h4.6v3.2h-3.4l-7.9,7.2h-8.9
	c-0.7,2.8-3.3,4.8-6.2,4.8c-3.5,0-6.4-2.9-6.4-6.4C1755.9,1675.1,1758.8,1672.2,1762.3,1672.2z M1751.5,1739.1l-4.8-4.8v-28.3
	c1.5,2.2,3.1,4.4,4.8,6.5V1739.1z M1755.6,1779.1v-30.2l75,75v90.7l-17.8,17.8V2317c-3.1,0-6.1,0.2-9.1,0.6v-490.3L1755.6,1779.1z
	 M1813.7,2327.1c16.7,0,30.2,13.1,30.2,29.3c0,6.1-2.4,10.8-4.9,15.2v0c0,0-0.5,0.9-22.2,39.1c-0.6,1.1-1.8,1.8-3.1,1.8
	c-1.3,0-2.5-0.7-3.1-1.8l-22.8-40c-2.6-4.6-4.3-8.7-4.3-14.2C1783.5,2340.3,1797.1,2327.1,1813.7,2327.1z M1813.7,2471
	c-37.2,0-67.5-30.3-67.5-67.5c0-24.1,12.7-45.2,31.7-57.2c-0.2,0.7-0.4,1.3-0.5,2c-0.6,2.6-0.9,5.2-0.9,7.8c0,2.7,0.3,5.3,1,7.9
	c0.3,1.2,0.7,2.3,1.1,3.5c0.1,0.3,1.4,3.1,1.4,3.1c-1.4,1.3-3.1,2.3-4.4,2.9l-1.3,0.6c-2.6,1.2-4.7,2.2-6.3,4.1
	c-2.6,3.1-6.1,6.6-10,6.6c-0.1,0-0.2,0-0.2,0c-0.4,0-0.7-0.1-1.2-0.1c-0.5,1.6-1,3.2-1.4,4.8c7.4,0.9,11.8,4.4,12,9.8
	c0,0.1,0,0.3,0,0.4c-0.2,2.8-0.2,5.5,0.1,8c0.2,2,1.8,3.4,4.4,5.6c2.8,2.4,6.4,5.5,6.8,10.5c0.2,2.6-0.6,4.9-1.3,6.8
	c-0.3,0.9-0.6,1.8-0.8,2.5l0,0.2c-0.3,1.5-0.6,2.7-0.4,3.7c0.4,2.5,0.8,7-2.1,10.1c-0.2,0.2-0.4,0.4-0.7,0.6
	c4.9,4.5,10.5,8.2,16.6,10.9c2.8-1.8,11.9-6.9,21.4-5.2c5.6,1,10.3,4.1,14,9.3c28-5.3,49.2-29.9,49.2-59.4c0-3.2-0.3-6.3-0.7-9.3
	c-0.3-0.9-0.7-2-1.5-2.4c-1.4-0.7-4.2,0.2-6.1,0.9c-2.5,0.8-5.7,1.9-7.7-0.8c-0.7-0.9-2.4-1.6-4-1.7c-0.2,0-0.4,0.1-0.5,0.2
	c-0.1,0.1-0.2,0.3-0.2,0.6c0,0.1,0.3,0.6,0.5,0.9c0.9,1.8,2.1,4.2,0.9,6.7c-1,1.9-2.9,3.1-5.4,3.5c-1.9,0.3-4.4,0-6.3-1
	c0.2,1,0.7,1.9,1.4,2.6c0.9,1,2.4,1.5,4.1,2.2c0.5,0.2,1,0.4,1.5,0.6c2,0.8,2.8,2.1,3.1,3.1c0.8,2.3-0.4,4.2-1.1,5.4
	c-0.2,0.4-0.5,0.8-0.7,1.2c-0.5,0.9-1,1.7-1.6,2.5c-0.7,1-1.4,2-2.2,2.9c-1.4,1.8-2.7,3.5-3.4,5.3c-0.6,1.6-0.7,3.4-0.9,5.4
	c-0.1,1.8-0.3,3.7-0.8,5.6c-0.7,2.7-2.2,4.6-3.4,6.1c-2.2,2.8-5.1,5-7.6,6.8c-2.3,1.7-4.6,2.5-6.8,2.5c-2.1,0-4.1-0.8-5.7-2.4
	c-2.4-2.4-4-5.8-4.9-10.1c-0.4-1.7-0.4-3.4-0.5-5.1c-0.1-1.7-0.1-3.2-0.5-4.5c-0.1-0.4-0.3-0.8-0.6-1.3c-0.7-1.3-1.6-3.1-1.4-5.5
	c0.2-1.7-0.1-2.9-0.8-3.5c-1.4-1.3-4.7-1.1-6-0.9c-0.1,0-0.3,0-0.4,0.1c-4,0.3-6.9-1.1-9.8-2.5l-0.6-0.3c-6.2-2.9-9-8.5-8.2-16.6
	c0.4-4.1,2.3-8.1,5-11.2l3.8,6.7c-1,1.6-1.6,3.3-1.8,5.1c-0.6,6.3,1.6,8.3,4.1,9.5l0.6,0.3c2.4,1.1,4.1,1.9,6.1,1.8
	c0.1,0,0.3,0,0.4-0.1l0.7,1.2c1.9,3.3,5.4,5.4,9.3,5.4c1.3,0,2.6-0.3,3.8-0.7c0.7,1.6,1.1,3.7,0.9,6.3c0,0.3,0.3,1,0.6,1.6
	c0.3,0.7,0.7,1.4,1,2.3c0.7,2.2,0.8,4.5,0.9,6.5c0,1.4,0.1,2.7,0.3,3.8c0.6,2.9,1.7,5.1,3.1,6.6c0.7,0.8,2.6-0.5,3.1-0.9
	c2.1-1.5,4.5-3.4,6.2-5.5c1-1.3,1.8-2.3,2-3.3c0.3-1.4,0.5-2.9,0.6-4.4c0.2-2.3,0.4-4.7,1.3-7.2c1-2.9,2.9-5.2,4.5-7.3
	c0.7-0.8,1.3-1.7,1.9-2.5c0.5-0.7,0.9-1.4,1.3-2.1c0-0.1,0.1-0.1,0.1-0.2c-2.1-0.8-4.3-1.7-6.2-3.8c-2.5-2.8-3.7-6.6-3.3-10.4
	c0.2-2.5,1.6-4.4,3.8-5.1c2.3-0.8,5,0,6.9,2c0.2,0.1,0.6,0.2,1,0.2c-0.4-0.8-0.8-1.6-1-2.5c-0.5-2.4,0.1-4.9,1.7-6.8
	c1.6-1.9,3.9-2.9,6.3-2.7c2.5,0.1,5.8,1.1,8.1,3.2c0.3-0.1,0.7-0.2,1-0.3c2-0.7,4.7-1.5,7.5-1.4c-3.8-11.4-10.8-21.2-20-28.5
	c0-3.4-0.6-6.6-1.5-9.7c19,12,31.7,33.1,31.7,57.2C1881.2,2440.8,1850.9,2471,1813.7,2471z M1857.9,2418.2c1.7-1,3.9-0.4,4.9,1.3
	c1.9,3.4-0.7,8-1.9,9.9c-0.8,1.2-3.8,5.4-7.4,6c-0.2,0-0.4,0.1-0.7,0.1c-1.7,0-3.2-1.2-3.5-2.9c-0.4-1.9,0.9-3.8,2.8-4.2
	c0.2-0.1,1.5-1.1,2.8-3c0.9-1.4,1.3-2.5,1.4-3C1855.8,2420.9,1856.4,2419.1,1857.9,2418.2z M1765.5,3249.8c0.6-0.9,2.1-1.5,3.2-1.5
	c20.4-0.1,40.8-0.1,61.2,0c2.4,0,4.3,1.8,4.4,3.9c0.1,2.2-1.9,4.2-4.4,4.2c-3.1,0.1-6.2,0-9.3,0c0,0,0,0,0,0c-3.1,0-6.2-0.1-9.2,0.1
	c-0.9,0.1-2.1,0.9-2.5,1.7c-1.8,3.7-4.7,5.7-8.8,5.7c-4-0.1-7-1.9-8.4-5.7c-0.6-1.6-1.5-1.7-2.9-1.7c-6.6,0-13.2,0-19.9,0
	c-2,0-3.7-0.8-4.2-2.7C1764.5,3252.5,1764.8,3250.8,1765.5,3249.8z M1824.4,3277.2c2.8-2.6,5.7-2.9,7.9-0.6c2.3,2.3,2,5.3-0.9,8.1
	c-8.7,8.4-19.2,12.3-30.6,12.4c-12.7-0.1-23.1-4.2-31.9-12.6c-2.8-2.6-3-5.5-0.7-7.9c2.2-2.3,5.1-2.1,7.9,0.5
	C1790.3,3290.1,1810.4,3290.1,1824.4,3277.2z M1779,3265c2.1-2.3,5-2.2,7.9,0.2c8.5,7.2,18.4,7.1,26.9,0c2.9-2.4,5.9-2.5,7.9-0.1
	c1.9,2.2,1.4,5.5-1.3,7.9c-5.8,5.2-12.5,7.7-20,7.8c-8-0.1-14.6-2.7-20.3-7.8C1777.5,3270.5,1777,3267.2,1779,3265z M1757,3288.3
	c2-2.2,5.2-2.2,7.7,0.2c10.9,10.3,23.8,15.2,38.8,14.3c12.6-0.7,23.2-5.8,32.3-14.3c3.2-3.1,7.7-2,8.8,2c0.6,2.3-0.3,4.1-1.9,5.6
	c-11.9,11.2-25.9,16.9-41.4,17.1c-17.5-0.1-31.7-5.9-43.7-17.2C1755.3,3293.7,1755,3290.5,1757,3288.3z M1817.4,3327.1
	c-5.6,1.2-11.4,1.6-17.2,2.4c-20.1-0.6-37.4-7.5-52.3-20.9c-0.7-0.7-1.5-1.4-2.1-2.1c-2-2.4-1.8-5.4,0.2-7.4c2-1.8,4.8-1.6,7.2,0.2
	c4.8,3.7,9.3,7.9,14.5,10.9c26,14.7,57.3,10.5,78.9-10.2c3.5-3.3,7.8-2.7,9.1,1.4c0.8,2.4-0.2,4.2-1.9,5.8
	C1843.7,3317.3,1831.5,3324.1,1817.4,3327.1z M1853.7,3930.4c-25.7,0-46.6-20.9-46.6-46.6c0-25.7,20.9-46.6,46.6-46.6
	s46.6,20.9,46.6,46.6C1900.3,3909.5,1879.4,3930.4,1853.7,3930.4z"/>
<path class="st0" d="M1813.7,2360.9c2.9,0,5.3-2.4,5.3-5.3s-2.4-5.3-5.3-5.3s-5.3,2.4-5.3,5.3S1810.8,2360.9,1813.7,2360.9z"/>
<path class="st0" d="M1762.3,2373.7c2.6-3.2,5.8-4.6,8.8-6l1.3-0.6c2.2-1,3.3-2.1,3.8-3.4c0.4-1.2,0.2-2.9-0.1-4.5
	c-0.1-0.4-0.1-0.9-0.2-1.5c0-0.3-0.1-0.7-0.2-1.2c-6.6,5.4-12.1,12.1-16,19.8C1760.4,2375.9,1761.2,2375,1762.3,2373.7z"/>
<path class="st0" d="M1813.7,2401.7c6.1-10.6,18.9-33.2,19.1-33.6c2.5-4.4,4-7.7,4-11.7c0-12.2-10.4-22.2-23.1-22.2
	s-23.1,9.9-23.1,22.2c0,3.9,1.3,7,3.4,10.7L1813.7,2401.7z M1813.7,2343.1c6.9,0,12.4,5.6,12.4,12.4s-5.6,12.4-12.4,12.4
	s-12.4-5.6-12.4-12.4S1806.9,2343.1,1813.7,2343.1z"/>
<path class="st0" d="M1766.8,2418.8c-2.8-2.4-6.2-5.4-6.8-10.2c-0.3-2.9-0.4-6-0.1-9.2c-0.2-1.8-3.5-2.6-6.1-2.9
	c-0.3,2.3-0.4,4.6-0.4,7c0,14.9,5.4,28.5,14.4,39.1c0.3,0,0.5-0.1,0.6-0.2c0.3-0.4,0.7-1.8,0.3-3.9c-0.4-2.4,0-4.6,0.4-6.5l0-0.2
	c0.3-1.3,0.7-2.4,1.1-3.5c0.5-1.5,1-2.8,0.9-3.9C1770.9,2422.5,1769.3,2421,1766.8,2418.8z"/>
<path class="st0" d="M1798.8,2462.1c4.8,1.2,9.8,1.9,14.9,1.9c0.9,0,1.8,0,2.6-0.1c-2-1.7-4.2-2.8-6.7-3.3
	C1805.8,2459.9,1801.9,2460.9,1798.8,2462.1z"/>
</svg>
