<svg width="1440" height="2585" viewBox="0 0 1440 2585" fill="none" xmlns="http://www.w3.org/2000/svg">
<circle cx="62" cy="29" r="9" fill="white" stroke="white" stroke-width="12"/>
<rect x="-70" y="337.96" width="186.62" height="12" rx="6" transform="rotate(-45 -70 337.96)" fill="white"/>
<rect x="55.9995" y="220" width="206" height="12" rx="6" transform="rotate(-90 55.9995 220)" fill="white"/>
<circle cx="101" cy="92" r="9" fill="white" stroke="white" stroke-width="12"/>
<rect x="-45" y="363.368" width="205.582" height="12" rx="6" transform="rotate(-45 -45 363.368)" fill="white"/>
<rect x="95" y="232" width="155" height="12" rx="6" transform="rotate(-90 95 232)" fill="white"/>
<circle r="8" transform="matrix(1 -8.74228e-08 -8.74228e-08 -1 101 615)" fill="white" stroke="white" stroke-width="14"/>
<rect width="205.582" height="12" rx="6" transform="matrix(0.707107 0.707107 0.707107 -0.707107 -45 343.313)" fill="white"/>
<rect width="155" height="12" rx="6" transform="matrix(4.37114e-08 1 1 -4.37114e-08 95 475)" fill="white"/>
<circle r="9" transform="matrix(1 -8.74228e-08 -8.74228e-08 -1 62 679)" fill="white" stroke="white" stroke-width="12"/>
<rect width="186.62" height="12" rx="6" transform="matrix(0.707107 0.707107 0.707107 -0.707107 -70 373.485)" fill="white"/>
<rect width="203" height="12" rx="6" transform="matrix(4.37114e-08 1 1 -4.37114e-08 56 491)" fill="white"/>
<circle cx="62" cy="29" r="9" fill="white" stroke="white" stroke-width="12"/>
<rect x="-70" y="337.96" width="186.62" height="12" rx="6" transform="rotate(-45 -70 337.96)" fill="white"/>
<rect x="55.9995" y="220" width="206" height="12" rx="6" transform="rotate(-90 55.9995 220)" fill="white"/>
<circle cx="101" cy="92" r="9" fill="white" stroke="white" stroke-width="12"/>
<rect x="-45" y="363.368" width="205.582" height="12" rx="6" transform="rotate(-45 -45 363.368)" fill="white"/>
<rect x="95" y="232" width="155" height="12" rx="6" transform="rotate(-90 95 232)" fill="white"/>
<circle r="8" transform="matrix(1 -8.74228e-08 -8.74228e-08 -1 101 615)" fill="white" stroke="white" stroke-width="14"/>
<rect width="205.582" height="12" rx="6" transform="matrix(0.707107 0.707107 0.707107 -0.707107 -45 343.313)" fill="white"/>
<rect width="155" height="12" rx="6" transform="matrix(4.37114e-08 1 1 -4.37114e-08 95 475)" fill="white"/>
<circle r="9" transform="matrix(1 -8.74228e-08 -8.74228e-08 -1 62 679)" fill="white" stroke="white" stroke-width="12"/>
<rect width="186.62" height="12" rx="6" transform="matrix(0.707107 0.707107 0.707107 -0.707107 -70 373.485)" fill="white"/>
<rect width="203" height="12" rx="6" transform="matrix(4.37114e-08 1 1 -4.37114e-08 56 491)" fill="white"/>
<circle cx="1321" cy="655" r="9" transform="rotate(-180 1321 655)" fill="white" stroke="white" stroke-width="12"/>
<rect x="1399.59" y="458.485" width="110.457" height="12" rx="6" transform="rotate(135 1399.59 458.485)" fill="white"/>
<rect x="1391.11" y="387.59" width="110.457" height="12" rx="6" transform="rotate(-135 1391.11 387.59)" fill="white"/>
<path d="M1321 523C1324.31 523 1327 525.686 1327 529L1327 664C1327 667.314 1324.31 670 1321 670C1317.69 670 1315 667.314 1315 664L1315 529C1315 525.686 1317.69 523 1321 523Z" fill="white"/>
<rect x="1327" y="179" width="136" height="12" rx="6" transform="rotate(90 1327 179)" fill="white"/>
<rect x="1398" y="374" width="90" height="12" rx="6" transform="rotate(90 1398 374)" fill="white"/>
<circle cx="1369" cy="655" r="9" transform="rotate(-180 1369 655)" fill="white" stroke="white" stroke-width="12"/>
<rect x="1447.59" y="461.485" width="110.457" height="12" rx="6" transform="rotate(135 1447.59 461.485)" fill="white"/>
<rect x="1435.1" y="379.419" width="110.457" height="12" rx="6" transform="rotate(-135 1435.1 379.419)" fill="white"/>
<rect x="1375" y="526" width="132" height="12" rx="6" transform="rotate(90 1375 526)" fill="white"/>
<rect x="1371" y="179" width="128" height="12" rx="6" transform="rotate(90 1371 179)" fill="white"/>
<circle cx="1414" cy="655" r="9" transform="rotate(-180 1414 655)" fill="white" stroke="white" stroke-width="12"/>
<rect x="1492.59" y="465.485" width="110.457" height="12" rx="6" transform="rotate(135 1492.59 465.485)" fill="white"/>
<rect x="1479.1" y="371.419" width="110.457" height="12" rx="6" transform="rotate(-135 1479.1 371.419)" fill="white"/>
<rect x="1420" y="530" width="123" height="12" rx="6" transform="rotate(90 1420 530)" fill="white"/>
<rect x="1414" y="179" width="119" height="12" rx="6" transform="rotate(90 1414 179)" fill="white"/>
<rect x="1276" y="6" width="177" height="177" rx="10" stroke="white" stroke-width="12"/>
<rect x="1321" y="51" width="87" height="87" rx="10" stroke="white" stroke-width="12"/>
<circle cx="62" cy="983" r="9" fill="white" stroke="white" stroke-width="12"/>
<rect x="-70" y="1291.96" width="186.62" height="12" rx="6" transform="rotate(-45 -70 1291.96)" fill="white"/>
<rect x="55.9995" y="1174" width="206" height="12" rx="6" transform="rotate(-90 55.9995 1174)" fill="white"/>
<circle cx="136" cy="1026" r="9" fill="white" stroke="white" stroke-width="12"/>
<rect x="23.957" y="1248.41" width="108.062" height="12" rx="6" transform="rotate(-45 23.957 1248.41)" fill="white"/>
<rect x="-45" y="1656.41" width="108.062" height="12" rx="6" transform="rotate(-45 -45 1656.41)" fill="white"/>
<rect x="93" y="1060.41" width="69.7091" height="12" rx="6" transform="rotate(-45 93 1060.41)" fill="white"/>
<rect x="95" y="1186" width="131" height="12" rx="6" transform="rotate(-90 95 1186)" fill="white"/>
<rect x="26" y="1594" width="351" height="12" rx="6.00001" transform="rotate(-90 26 1594)" fill="white"/>
<circle r="9" transform="matrix(1 -8.74228e-08 -8.74228e-08 -1 138.999 1997.9)" fill="white" stroke="white" stroke-width="12"/>
<circle r="9" transform="matrix(1 -8.74228e-08 -8.74228e-08 -1 83 1736)" fill="white" stroke="white" stroke-width="12"/>
<rect width="69.7091" height="12" rx="6" transform="matrix(0.707107 0.707107 0.707107 -0.707107 95.999 1963.49)" fill="white"/>
<rect width="218" height="12" rx="6" transform="matrix(4.37114e-08 1 1 -4.37114e-08 97.999 1751)" fill="white"/>
<rect width="50.2552" height="12" rx="6" transform="matrix(0.707107 0.707107 0.707107 -0.707107 68.5566 1730.04)" fill="white"/>
<circle cx="82.999" cy="2276" r="9" transform="rotate(-180 82.999 2276)" fill="white" stroke="white" stroke-width="12"/>
<circle cx="99" cy="2335" r="9" transform="rotate(-180 99 2335)" fill="white" stroke="white" stroke-width="12"/>
<circle cx="26" cy="2234" r="9" transform="rotate(-180 26 2234)" fill="white" stroke="white" stroke-width="12"/>
<rect x="70" y="2503.49" width="115.016" height="12" rx="6" transform="rotate(135 70 2503.49)" fill="white"/>
<rect x="33.8135" y="2467.49" width="115.016" height="12" rx="6" transform="rotate(135 33.8135 2467.49)" fill="white"/>
<rect x="68" y="2291" width="218" height="12" rx="6" transform="rotate(90 68 2291)" fill="white"/>
<rect x="32" y="2219" width="254" height="12" rx="5.99999" transform="rotate(90 32 2219)" fill="white"/>
<rect x="97.4424" y="2270.04" width="50.2552" height="12" rx="6" transform="rotate(135 97.4424 2270.04)" fill="white"/>
<rect x="113.424" y="2329.5" width="72.8565" height="12" rx="6" transform="rotate(135 113.424 2329.5)" fill="white"/>
<circle cx="70.0005" cy="1277" r="9" fill="white" stroke="white" stroke-width="12"/>
<rect x="-45.6816" y="1714.09" width="162.766" height="12" rx="6" transform="rotate(-45 -45.6816 1714.09)" fill="white"/>
<rect x="64.0005" y="1613" width="351" height="12" rx="6.00001" transform="rotate(-90 64.0005 1613)" fill="white"/>
<circle r="9" transform="matrix(1 -8.74228e-08 -8.74228e-08 -1 62.6821 2111.58)" fill="white" stroke="white" stroke-width="12"/>
<rect width="162.766" height="12" rx="6" transform="matrix(0.707107 0.707107 0.707107 -0.707107 -53 1674.49)" fill="white"/>
<rect width="351" height="12" rx="6.00001" transform="matrix(4.37114e-08 1 1 -4.37114e-08 56.6821 1775.58)" fill="white"/>
<circle cx="1360" cy="1998" r="9" transform="rotate(-180 1360 1998)" fill="white" stroke="white" stroke-width="12"/>
<rect x="1492" y="1689.04" width="186.62" height="12" rx="6" transform="rotate(135 1492 1689.04)" fill="white"/>
<rect x="1366" y="1807" width="206" height="12" rx="6" transform="rotate(90 1366 1807)" fill="white"/>
<circle cx="1321" cy="1935" r="9" transform="rotate(-180 1321 1935)" fill="white" stroke="white" stroke-width="12"/>
<rect x="1467" y="1663.63" width="205.582" height="12" rx="6" transform="rotate(135 1467 1663.63)" fill="white"/>
<rect x="1327" y="1795" width="155" height="12" rx="6" transform="rotate(90 1327 1795)" fill="white"/>
<circle r="8" transform="matrix(-1 0 0 1 1321 1412)" fill="white" stroke="white" stroke-width="14"/>
<rect width="205.582" height="12" rx="6" transform="matrix(-0.707107 -0.707107 -0.707107 0.707107 1467 1683.69)" fill="white"/>
<rect width="155" height="12" rx="6" transform="matrix(4.37114e-08 -1 -1 -4.37114e-08 1327 1552)" fill="white"/>
<circle r="9" transform="matrix(-1 0 0 1 1360 1258)" fill="white" stroke="white" stroke-width="12"/>
<rect width="186.62" height="12" rx="6" transform="matrix(-0.707107 -0.707107 -0.707107 0.707107 1492 1653.51)" fill="white"/>
<rect width="293" height="12" rx="6.00001" transform="matrix(4.37114e-08 -1 -1 -4.37114e-08 1366 1536)" fill="white"/>
<circle r="9" transform="matrix(-1 0 0 1 1367 968)" fill="white" stroke="white" stroke-width="12"/>
<rect width="186.62" height="12" rx="6" transform="matrix(-0.707107 -0.707107 -0.707107 0.707107 1533 1632.51)" fill="white"/>
<rect width="520" height="12" rx="6.00001" transform="matrix(4.37114e-08 -1 -1 -4.37114e-08 1407 1515)" fill="white"/>
<rect width="67.6707" height="12" rx="6" transform="matrix(-0.707107 -0.707107 -0.707107 0.707107 1409.34 1000.85)" fill="white"/>
<circle cx="1398" cy="2327" r="9" transform="rotate(180 1398 2327)" fill="white" stroke="white" stroke-width="12"/>
<circle cx="1341" cy="2167" r="9" transform="rotate(180 1341 2167)" fill="white" stroke="white" stroke-width="12"/>
<rect x="1530" y="1700.49" width="186.62" height="12" rx="6" transform="rotate(135 1530 1700.49)" fill="white"/>
<rect x="1404" y="1818" width="524" height="12.0001" rx="6.00006" transform="rotate(90 1404 1818)" fill="white"/>
<rect x="1405.75" y="2110.49" width="100.785" height="12" rx="6" transform="rotate(135 1405.75 2110.49)" fill="white"/>
</svg>
